<svg xmlns="http://www.w3.org/2000/svg" viewBox="0 0 512 512" fill="white">
  <path d="M178.5 78.4c-23.6 7.2-43.7 30.4-51.3 59.3-3.2 12.4-4 31.4-1.9 43.6 2.8 16.1 10.8 35.4 20.5 49.6 4.3 6.4 5.8 9.7 6.7 14.6.9 4.9 1 13.7.2 24.2-1.1 15.2-.5 23.3 2.5 35.5 7.4 30.6 28.2 58.2 55.8 74.2 11.4 6.6 28.6 13.4 42.5 16.8 22.7 5.6 50.2 4.8 73.6-2.1 26.3-7.6 50.3-24.8 65.3-46.7 16.8-24.5 22.7-56.2 15.7-84.2-3.1-12.4-8.6-24.6-15.6-34.4-3.1-4.4-4.2-6.8-4.8-11.5-.7-5.3.4-12.3 4.6-26.5 6.9-23.3 7.4-43.3 1.5-62.8-7.7-25.8-26.4-47.8-49.2-57.8-21.7-9.6-48.6-10.4-71.1-2.1-9.3 3.5-20.3 9.6-28.8 16.2-8.5-6.6-19.5-12.7-28.8-16.2-13.6-5.1-29.6-6.6-43.6-4.1z"/>
  <circle cx="240" cy="190" r="28"/>
  <circle cx="300" cy="175" r="28"/>
  <circle cx="355" cy="195" r="28"/>
  <circle cx="395" cy="235" r="28"/>
  <circle cx="415" cy="290" r="28"/>
</svg>
